<svg xmlns="http://www.w3.org/2000/svg" viewBox="0 0 400 400" width="400" height="400">
  <rect width="400" height="400" fill="#ffffff" rx="16"/>
  <!-- QRIS Header Banner -->
  <rect x="0" y="0" width="400" height="60" fill="#ea2127"/>
  <text x="200" y="38" fill="#ffffff" font-family="Arial, sans-serif" font-weight="bold" font-size="22" text-anchor="middle" letter-spacing="2">QRIS NATIONAL</text>
  
  <!-- Outer Frame -->
  <rect x="25" y="80" width="350" height="300" fill="none" stroke="#000000" stroke-width="3" rx="8"/>
  
  <!-- Corner Finder Patterns (Top-Left) -->
  <rect x="50" y="105" width="70" height="70" fill="#000000" rx="6"/>
  <rect x="62" y="117" width="46" height="46" fill="#ffffff" rx="3"/>
  <rect x="72" y="127" width="26" height="26" fill="#000000" rx="2"/>

  <!-- Corner Finder Patterns (Top-Right) -->
  <rect x="280" y="105" width="70" height="70" fill="#000000" rx="6"/>
  <rect x="292" y="117" width="46" height="46" fill="#ffffff" rx="3"/>
  <rect x="302" y="127" width="26" height="26" fill="#000000" rx="2"/>

  <!-- Corner Finder Patterns (Bottom-Left) -->
  <rect x="50" y="295" width="70" height="70" fill="#000000" rx="6"/>
  <rect x="62" y="307" width="46" height="46" fill="#ffffff" rx="3"/>
  <rect x="72" y="317" width="26" height="26" fill="#000000" rx="2"/>

  <!-- Data Grid Pattern Modules -->
  <rect x="140" y="105" width="20" height="20" fill="#000000"/>
  <rect x="170" y="105" width="20" height="20" fill="#000000"/>
  <rect x="210" y="105" width="20" height="20" fill="#000000"/>
  <rect x="240" y="105" width="20" height="20" fill="#000000"/>

  <rect x="140" y="135" width="20" height="20" fill="#000000"/>
  <rect x="190" y="135" width="30" height="20" fill="#000000"/>
  <rect x="240" y="135" width="20" height="20" fill="#000000"/>

  <rect x="160" y="165" width="30" height="20" fill="#000000"/>
  <rect x="210" y="165" width="20" height="20" fill="#000000"/>
  <rect x="250" y="165" width="30" height="20" fill="#000000"/>

  <rect x="50" y="190" width="20" height="20" fill="#000000"/>
  <rect x="80" y="190" width="30" height="20" fill="#000000"/>
  <rect x="130" y="190" width="20" height="20" fill="#000000"/>
  <rect x="170" y="190" width="20" height="20" fill="#000000"/>
  <rect x="200" y="190" width="30" height="20" fill="#000000"/>
  <rect x="250" y="190" width="20" height="20" fill="#000000"/>
  <rect x="290" y="190" width="30" height="20" fill="#000000"/>
  <rect x="330" y="190" width="20" height="20" fill="#000000"/>

  <rect x="60" y="220" width="30" height="20" fill="#000000"/>
  <rect x="110" y="220" width="20" height="20" fill="#000000"/>
  <rect x="150" y="220" width="30" height="20" fill="#000000"/>
  <rect x="220" y="220" width="20" height="20" fill="#000000"/>
  <rect x="260" y="220" width="30" height="20" fill="#000000"/>
  <rect x="310" y="220" width="20" height="20" fill="#000000"/>

  <rect x="50" y="250" width="20" height="20" fill="#000000"/>
  <rect x="90" y="250" width="20" height="20" fill="#000000"/>
  <rect x="130" y="250" width="30" height="20" fill="#000000"/>
  <rect x="180" y="250" width="20" height="20" fill="#000000"/>
  <rect x="220" y="250" width="30" height="20" fill="#000000"/>
  <rect x="270" y="250" width="20" height="20" fill="#000000"/>
  <rect x="310" y="250" width="30" height="20" fill="#000000"/>

  <rect x="140" y="295" width="20" height="20" fill="#000000"/>
  <rect x="170" y="295" width="30" height="20" fill="#000000"/>
  <rect x="220" y="295" width="20" height="20" fill="#000000"/>
  <rect x="260" y="295" width="30" height="20" fill="#000000"/>
  <rect x="310" y="295" width="20" height="20" fill="#000000"/>

  <rect x="140" y="325" width="30" height="20" fill="#000000"/>
  <rect x="190" y="325" width="20" height="20" fill="#000000"/>
  <rect x="230" y="325" width="30" height="20" fill="#000000"/>
  <rect x="280" y="325" width="20" height="20" fill="#000000"/>
  <rect x="320" y="325" width="30" height="20" fill="#000000"/>

  <!-- Center Brand Badge -->
  <rect x="160" y="160" width="80" height="80" fill="#ffffff" stroke="#ea2127" stroke-width="3" rx="12"/>
  <text x="200" y="206" fill="#10b981" font-family="Arial, sans-serif" font-weight="900" font-size="16" text-anchor="middle">CATAVOR</text>
  <text x="200" y="224" fill="#64748b" font-family="Arial, sans-serif" font-weight="bold" font-size="10" text-anchor="middle">PAYMENT</text>
</svg>
